<svg width="96" height="96" viewBox="0 0 96 96" xmlns="http://www.w3.org/2000/svg">
<defs><linearGradient id="b" x1="8" y1="8" x2="88" y2="88"><stop stop-color="#8DD8FF"/><stop offset="1" stop-color="#3C5BFF"/></linearGradient></defs>
<rect width="96" height="96" rx="48" fill="url(#b)"/><circle cx="48" cy="40" r="20" fill="#C9875F"/><path d="M22 88c4-20 15-29 26-29s22 9 26 29" fill="#101D34"/><path d="M29 35c2-17 10-25 23-25 14 0 22 10 21 27-8-7-17-11-28-11-6 0-11 3-16 9Z" fill="#16191E"/><path d="M35 55c8 6 18 6 26 0-1 10-5 16-13 16s-12-6-13-16Z" fill="#20252B"/><circle cx="41" cy="41" r="2"/><circle cx="56" cy="41" r="2"/></svg>
