<svg width="96" height="96" viewBox="0 0 96 96" xmlns="http://www.w3.org/2000/svg">
<defs><linearGradient id="b" x1="8" y1="8" x2="86" y2="90"><stop stop-color="#C9A8FF"/><stop offset="1" stop-color="#6B4EFF"/></linearGradient></defs>
<rect width="96" height="96" rx="48" fill="url(#b)"/><circle cx="48" cy="41" r="20" fill="#D69B72"/><path d="M20 88c4-19 15-29 28-29s24 10 28 29" fill="#172038"/><path d="M25 41c0-21 10-32 24-32 17 0 25 13 23 34-8-9-14-15-21-20-6 8-14 14-26 18Z" fill="#1A1515"/><circle cx="41" cy="42" r="2"/><circle cx="55" cy="42" r="2"/><path d="M42 51c3 2 8 2 12 0" stroke="#9A4A4A" stroke-width="2" stroke-linecap="round"/></svg>
