<svg width="96" height="96" viewBox="0 0 96 96" xmlns="http://www.w3.org/2000/svg">
<defs><linearGradient id="b" x1="12" y1="10" x2="84" y2="90"><stop stop-color="#F4C9A6"/><stop offset="1" stop-color="#9B6CFF"/></linearGradient></defs>
<rect width="96" height="96" rx="48" fill="url(#b)"/><circle cx="48" cy="40" r="21" fill="#F3C9A9"/><path d="M23 87c3-19 15-30 25-30s22 11 25 30" fill="#17223A"/><path d="M28 39c0-18 10-28 24-28 11 0 20 9 20 23-7-2-15-7-22-12-5 8-12 12-22 17Z" fill="#4B2E2B"/><circle cx="41" cy="41" r="2" fill="#2D1A18"/><circle cx="55" cy="41" r="2" fill="#2D1A18"/><path d="M42 50c4 3 8 3 12 0" stroke="#B76866" stroke-width="2" stroke-linecap="round" fill="none"/></svg>
