<svg width="96" height="96" viewBox="0 0 96 96" xmlns="http://www.w3.org/2000/svg">
<defs><linearGradient id="b" x1="10" y1="12" x2="86" y2="86"><stop stop-color="#7BF0C1"/><stop offset="1" stop-color="#166B86"/></linearGradient></defs>
<rect width="96" height="96" rx="48" fill="url(#b)"/><circle cx="48" cy="41" r="20" fill="#B9784D"/><path d="M21 89c4-19 15-30 27-30s23 11 27 30" fill="#132D39"/><path d="M28 37c0-18 9-27 22-27 14 0 22 10 22 29-7-8-15-13-25-14-7 0-13 4-19 12Z" fill="#121313"/><path d="M37 54c7 4 15 4 22 0-1 9-5 14-11 14s-10-5-11-14Z" fill="#242424"/><circle cx="41" cy="42" r="2"/><circle cx="55" cy="42" r="2"/></svg>
