<svg width="96" height="96" viewBox="0 0 96 96" xmlns="http://www.w3.org/2000/svg">
<defs><linearGradient id="b" x1="12" y1="8" x2="82" y2="90"><stop stop-color="#FFD17A"/><stop offset="1" stop-color="#FF6B9B"/></linearGradient></defs>
<rect width="96" height="96" rx="48" fill="url(#b)"/><circle cx="48" cy="41" r="20" fill="#E7B28F"/><path d="M20 88c4-18 16-29 28-29s24 11 28 29" fill="#2A2545"/><path d="M27 39c-1-19 9-30 23-30 16 0 25 13 22 33-6-3-12-8-18-15-8 8-17 12-27 12Z" fill="#2D1C1B"/><circle cx="41" cy="42" r="2"/><circle cx="55" cy="42" r="2"/><path d="M42 51c3 2 8 2 12 0" stroke="#A75252" stroke-width="2" stroke-linecap="round"/></svg>
