<svg width="44" height="44" viewBox="0 0 44 44" fill="none" xmlns="http://www.w3.org/2000/svg">
  <defs>
    <linearGradient id="g1" x1="5" y1="5" x2="39" y2="39" gradientUnits="userSpaceOnUse">
      <stop stop-color="#9A6BFF"/>
      <stop offset="0.48" stop-color="#6C4EFF"/>
      <stop offset="1" stop-color="#11C4D8"/>
    </linearGradient>
    <linearGradient id="g2" x1="36" y1="5" x2="10" y2="38" gradientUnits="userSpaceOnUse">
      <stop stop-color="#FF63C3"/>
      <stop offset="1" stop-color="#7956FF"/>
    </linearGradient>
    <filter id="shadow" x="-20%" y="-20%" width="140%" height="140%">
      <feDropShadow dx="0" dy="4" stdDeviation="4" flood-color="#6C4EFF" flood-opacity=".24"/>
    </filter>
  </defs>
  <g filter="url(#shadow)">
    <path d="M7 10.5C7 7.46 9.46 5 12.5 5H24.3C27.03 5 29.36 6.99 29.79 9.69L31.57 20.82C32.04 23.75 29.98 26.51 27.02 26.77L17.42 27.61C14.36 27.88 11.64 25.74 11.21 22.69L7.06 13.28C7.02 12.95 7 12.62 7 12.29V10.5Z" fill="url(#g1)"/>
    <path d="M37 12.54C37 9.48 34.52 7 31.46 7H22.31C19.73 7 17.49 8.78 16.91 11.29L13.77 24.89C13.06 27.96 15.31 30.93 18.45 31.07L28.52 31.52C31.31 31.65 33.82 29.83 34.56 27.14L36.81 18.96C36.94 18.5 37 18.02 37 17.54V12.54Z" fill="url(#g2)" fill-opacity=".93"/>
    <path d="M9.6 29.1C8.05 26.55 9.02 23.23 11.7 21.91L20.84 17.42C23.4 16.16 26.5 17.05 27.99 19.49L33.87 29.15C35.55 31.92 34.37 35.54 31.39 36.82L21.1 41.23C18.49 42.35 15.45 41.33 14.06 38.85L9.6 30.9C9.27 30.32 9.27 29.68 9.6 29.1Z" fill="url(#g1)"/>
    <path d="M21.5 15.5L31.5 26.5L20.5 31.5L13.5 22L21.5 15.5Z" fill="white" fill-opacity=".18"/>
  </g>
</svg>
